<svg xmlns="http://www.w3.org/2000/svg" viewBox="0 0 64 64" width="64" height="64">
  <defs>
    <linearGradient id="bl-seal" x1="0" y1="0" x2="1" y2="1">
      <stop offset="0" stop-color="#8368ff" />
      <stop offset="1" stop-color="#6a4de8" />
    </linearGradient>
    <linearGradient id="bl-brass" x1="0" y1="0" x2="1" y2="1">
      <stop offset="0" stop-color="#e6c481" />
      <stop offset="1" stop-color="#b3924a" />
    </linearGradient>
  </defs>
  <circle cx="32" cy="32" r="21" fill="none" stroke="url(#bl-brass)" stroke-width="2.5" />
  <circle cx="32" cy="32" r="14.5" fill="url(#bl-seal)" />
  <path d="M43.31 38.48Q43.31 41.14 41.02 42.82Q38.72 44.5 34.13 44.5L21.76 44.5Q21.21 44.5 20.95 44.28Q20.69 44.05 20.69 43.68Q20.69 43 21.44 42.77L22.46 42.54Q22.9 42.41 23.13 42.16Q23.35 41.91 23.35 41.52L23.35 22.48Q23.35 22.09 23.13 21.84Q22.9 21.59 22.46 21.46L21.44 21.23Q20.69 21 20.69 20.32Q20.69 19.93 20.95 19.71Q21.21 19.5 21.76 19.5L31.4 19.5Q34.72 19.5 37.07 20.41Q39.42 21.32 40.65 22.94Q41.88 24.55 41.88 26.71Q41.88 28.52 40.88 29.93Q39.87 31.34 37.88 32.15Q35.9 32.96 32.99 32.96L33.99 32.41Q36.83 32.41 38.92 33.19Q41.01 33.96 42.16 35.33Q43.31 36.7 43.31 38.48ZM32.1 33.63L27.33 33.63L27.33 32.18L31.65 32.18Q33.24 32.18 34.35 31.58Q35.46 30.98 36.03 29.82Q36.6 28.66 36.6 27Q36.6 25.23 35.89 23.92Q35.19 22.61 33.83 21.88Q32.47 21.14 30.51 21.14L28.88 21.14L28.88 41.13Q28.88 42 29.43 42.43Q29.97 42.86 31.03 42.86L32.92 42.86Q34.51 42.86 35.59 42.3Q36.67 41.75 37.22 40.72Q37.78 39.7 37.78 38.34Q37.78 36.2 36.32 34.91Q34.87 33.63 32.1 33.63Z" fill="#f4f1ea" />
</svg>
